HIERARCHY
ROOT Hips
{
    OFFSET   0.000000   0.000000   0.000000
    CHANNELS 6 Xposition Yposition Zposition Zrotation Xrotation Yrotation
    JOINT Chest
    {
        OFFSET   0.000000   8.007230   0.000000
        CHANNELS 3 Zrotation Xrotation Yrotation
        JOINT Chest2
        {
            OFFSET   0.000000  22.077100   0.000000
            CHANNELS 3 Zrotation Xrotation Yrotation
            JOINT Neck
            {
                OFFSET   0.000000  23.255100   0.000000
                CHANNELS 3 Zrotation Xrotation Yrotation
                JOINT Head
                {
                    OFFSET   0.000000  14.370100   1.956600
                    CHANNELS 3 Zrotation Xrotation Yrotation
                    End Site
                    {
                        OFFSET   0.000000  19.566000   0.000000
                    }
                }
            }
            JOINT LeftCollar
            {
                OFFSET   3.911900  19.017000  -0.467063
                CHANNELS 3 Zrotation Xrotation Yrotation
                JOINT LeftShoulder
                {
                    OFFSET  10.383700   0.000000   0.000000
                    CHANNELS 3 Zrotation Xrotation Yrotation
                    JOINT LeftElbow
                    {
                        OFFSET  26.662100   0.001193   0.000980
                        CHANNELS 3 Zrotation Xrotation Yrotation
                        JOINT LeftWrist
                        {
                            OFFSET  28.869000  -0.000059  -0.000082
                            CHANNELS 3 Zrotation Xrotation Yrotation
                            JOINT LeftFinger0
                            {
                                OFFSET   2.044650  -2.323450   3.252850
                                CHANNELS 3 Zrotation Xrotation Yrotation
                                JOINT LeftFinger01
                                {
                                    OFFSET   3.088130   0.000000   0.000000
                                    CHANNELS 3 Zrotation Xrotation Yrotation
                                    JOINT LeftFinger02
                                    {
                                        OFFSET   2.639460   0.000000   0.000000
                                        CHANNELS 3 Zrotation Xrotation Yrotation
                                        End Site
                                        {
                                            OFFSET   2.582190   0.000000   0.000000
                                        }
                                    }
                                }
                            }
                            JOINT LeftFinger1
                            {
                                OFFSET   8.364480   0.000000   3.252850
                                CHANNELS 3 Zrotation Xrotation Yrotation
                                JOINT LeftFinger11
                                {
                                    OFFSET   4.646930   0.000000   0.000000
                                    CHANNELS 3 Zrotation Xrotation Yrotation
                                    JOINT LeftFinger12
                                    {
                                        OFFSET   2.323470   0.000000   0.000000
                                        CHANNELS 3 Zrotation Xrotation Yrotation
                                        End Site
                                        {
                                            OFFSET   2.273050   0.000000   0.000000
                                        }
                                    }
                                }
                            }
                            JOINT LeftFinger2
                            {
                                OFFSET   8.364490   0.000016   1.078090
                                CHANNELS 3 Zrotation Xrotation Yrotation
                                JOINT LeftFinger21
                                {
                                    OFFSET   5.111610   0.000000   0.000000
                                    CHANNELS 3 Zrotation Xrotation Yrotation
                                    JOINT LeftFinger22
                                    {
                                        OFFSET   2.788150   0.000016   0.000000
                                        CHANNELS 3 Zrotation Xrotation Yrotation
                                        End Site
                                        {
                                            OFFSET   2.727660   0.000000   0.000000
                                        }
                                    }
                                }
                            }
                            JOINT LeftFinger3
                            {
                                OFFSET   7.899780   0.000015  -1.078090
                                CHANNELS 3 Zrotation Xrotation Yrotation
                                JOINT LeftFinger31
                                {
                                    OFFSET   4.646930   0.000000   0.000000
                                    CHANNELS 3 Zrotation Xrotation Yrotation
                                    JOINT LeftFinger32
                                    {
                                        OFFSET   2.323470   0.000000   0.000000
                                        CHANNELS 3 Zrotation Xrotation Yrotation
                                        End Site
                                        {
                                            OFFSET   2.273050   0.000000   0.000000
                                        }
                                    }
                                }
                            }
                            JOINT LeftFinger4
                            {
                                OFFSET   7.435090   0.000000  -3.252850
                                CHANNELS 3 Zrotation Xrotation Yrotation
                                JOINT LeftFinger41
                                {
                                    OFFSET   3.717550   0.000000   0.000000
                                    CHANNELS 3 Zrotation Xrotation Yrotation
                                    JOINT LeftFinger42
                                    {
                                        OFFSET   1.858770   0.000000   0.000000
                                        CHANNELS 3 Zrotation Xrotation Yrotation
                                        End Site
                                        {
                                            OFFSET   1.818440   0.000000   0.000000
                                        }
                                    }
                                }
                            }
                        }
                    }
                }
            }
            JOINT RightCollar
            {
                OFFSET  -3.911910  19.017000  -0.467062
                CHANNELS 3 Zrotation Xrotation Yrotation
                JOINT RightShoulder
                {
                    OFFSET -10.383700   0.000014   0.000000
                    CHANNELS 3 Zrotation Xrotation Yrotation
                    JOINT RightElbow
                    {
                        OFFSET -26.662100   0.001225   0.001091
                        CHANNELS 3 Zrotation Xrotation Yrotation
                        JOINT RightWrist
                        {
                            OFFSET -28.869000  -0.000020  -0.000085
                            CHANNELS 3 Zrotation Xrotation Yrotation
                            JOINT RightFinger0
                            {
                                OFFSET  -2.044650  -2.323490   3.252850
                                CHANNELS 3 Zrotation Xrotation Yrotation
                                JOINT RightFinger01
                                {
                                    OFFSET  -3.088130   0.000000   0.000000
                                    CHANNELS 3 Zrotation Xrotation Yrotation
                                    JOINT RightFinger02
                                    {
                                        OFFSET  -2.639460   0.000000   0.000000
                                        CHANNELS 3 Zrotation Xrotation Yrotation
                                        End Site
                                        {
                                            OFFSET  -2.582190   0.000000   0.000000
                                        }
                                    }
                                }
                            }
                            JOINT RightFinger1
                            {
                                OFFSET  -8.364480   0.000000   3.252850
                                CHANNELS 3 Zrotation Xrotation Yrotation
                                JOINT RightFinger11
                                {
                                    OFFSET  -4.646930   0.000000   0.000000
                                    CHANNELS 3 Zrotation Xrotation Yrotation
                                    JOINT RightFinger12
                                    {
                                        OFFSET  -2.323470   0.000000   0.000000
                                        CHANNELS 3 Zrotation Xrotation Yrotation
                                        End Site
                                        {
                                            OFFSET  -2.273050   0.000000   0.000000
                                        }
                                    }
                                }
                            }
                            JOINT RightFinger2
                            {
                                OFFSET  -8.364480   0.000000   1.078090
                                CHANNELS 3 Zrotation Xrotation Yrotation
                                JOINT RightFinger21
                                {
                                    OFFSET  -5.111620   0.000000   0.000000
                                    CHANNELS 3 Zrotation Xrotation Yrotation
                                    JOINT RightFinger22
                                    {
                                        OFFSET  -2.788160   0.000000   0.000000
                                        CHANNELS 3 Zrotation Xrotation Yrotation
                                        End Site
                                        {
                                            OFFSET  -2.727660   0.000000   0.000000
                                        }
                                    }
                                }
                            }
                            JOINT RightFinger3
                            {
                                OFFSET  -7.899780   0.000000  -1.078090
                                CHANNELS 3 Zrotation Xrotation Yrotation
                                JOINT RightFinger31
                                {
                                    OFFSET  -4.646930   0.000000   0.000000
                                    CHANNELS 3 Zrotation Xrotation Yrotation
                                    JOINT RightFinger32
                                    {
                                        OFFSET  -2.323470   0.000000   0.000000
                                        CHANNELS 3 Zrotation Xrotation Yrotation
                                        End Site
                                        {
                                            OFFSET  -2.273050   0.000000   0.000000
                                        }
                                    }
                                }
                            }
                            JOINT RightFinger4
                            {
                                OFFSET  -7.435090   0.000000  -3.252850
                                CHANNELS 3 Zrotation Xrotation Yrotation
                                JOINT RightFinger41
                                {
                                    OFFSET  -3.717550   0.000000   0.000000
                                    CHANNELS 3 Zrotation Xrotation Yrotation
                                    JOINT RightFinger42
                                    {
                                        OFFSET  -1.858760   0.000000   0.000000
                                        CHANNELS 3 Zrotation Xrotation Yrotation
                                        End Site
                                        {
                                            OFFSET  -1.818440   0.000000   0.000000
                                        }
                                    }
                                }
                            }
                        }
                    }
                }
            }
        }
    }
    JOINT LeftHip
    {
        OFFSET   9.783030   0.000000   0.000000
        CHANNELS 3 Zrotation Xrotation Yrotation
        JOINT LeftKnee
        {
            OFFSET   0.000063 -41.789100   0.000608
            CHANNELS 3 Zrotation Xrotation Yrotation
            JOINT LeftAnkle
            {
                OFFSET   0.000048 -41.133200  -0.000184
                CHANNELS 3 Zrotation Xrotation Yrotation
                JOINT LeftToe
                {
                    OFFSET   0.000000  -6.358960  14.674500
                    CHANNELS 3 Zrotation Xrotation Yrotation
                    End Site
                    {
                        OFFSET   0.000000   0.000000   3.913200
                    }
                }
            }
        }
    }
    JOINT RightHip
    {
        OFFSET  -9.783030   0.000000   0.000000
        CHANNELS 3 Zrotation Xrotation Yrotation
        JOINT RightKnee
        {
            OFFSET   0.000071 -41.789100   0.001239
            CHANNELS 3 Zrotation Xrotation Yrotation
            JOINT RightAnkle
            {
                OFFSET   0.000037 -41.133200  -0.000166
                CHANNELS 3 Zrotation Xrotation Yrotation
                JOINT RightToe
                {
                    OFFSET   0.000000  -6.358960  14.674500
                    CHANNELS 3 Zrotation Xrotation Yrotation
                    End Site
                    {
                        OFFSET   0.000000   0.000000   3.913200
                    }
                }
            }
        }
    }
}
MOTION
Frames: 4
Frame Time:   0.016667
 -0.992402  89.588700  -2.937250  -1.667820 -10.455300   0.961546   0.600810   6.223470  -2.368930   1.475170  12.415900  -4.847370   2.875720  -7.127100   0.357154   4.927930 -14.342800  16.666000  -7.583850  -5.238510  -4.566440 -42.354100  20.251300 -82.567200  11.689000 -33.866800 -89.774700 -15.990300 -31.025000 -18.510900  59.007000  54.320600 -108.251000 -26.805900   0.010118   0.005437  -8.402960  -0.003214   0.001764 -53.700300   7.851190  -5.779380 -44.260600   0.003285   0.002347 -33.195500  -0.004732   0.001453 -38.219200  -3.556490   4.512710 -54.226100  -0.000556  -0.002377 -36.768800   0.002551  -0.003615 -42.065400  -5.931610   6.597280 -54.430400  -0.001845  -0.003648 -37.985800  -0.006764  -0.002991 -52.331500  -6.998000   5.413540 -78.991700  -0.000262  -0.001644 -52.608400   0.000450   0.001820  13.438100  -3.041570  10.467200  67.658200  17.211000  -8.813180  -5.525160  -1.482480  19.763400 -12.757800 -15.309900   4.379810 -51.312500  50.166500  98.534800  21.209800   0.004364  -0.001817   5.604910   0.000000  -0.002609  33.758500   9.327560  13.630100  28.534700   0.002266  -0.000815  19.974200   0.000631   0.000182  29.396700   3.196770   5.652450  44.331900  -0.003366  -0.004360  29.525000  -0.004210  -0.000714  28.722200   0.721188   1.315680  39.730900  -0.002972  -0.001668  26.460800  -0.003022   0.002479  37.536200  -0.390452  -0.508144  56.306900  -0.002399  -0.005075  37.500400  -0.006003  -0.000652   0.917015  11.734800   0.560653   1.139730   0.070308  -0.634302  -1.888030  -2.538640  -1.207370  -0.000000   0.000000   0.000000   4.841910  11.496100  -4.003390  -1.864860   2.476740  -2.659410  -1.667380  -4.995280   2.428410   0.000000   0.000000   0.000000
 -1.019310  89.590600  -2.912420  -1.665910 -10.428700   0.964119   0.577682   6.216830  -2.329860   1.423490  12.404300  -4.765390   2.919750  -7.150010   0.363785   5.008900 -14.385000  16.579700  -7.594040  -5.185640  -4.595020 -42.409200  20.369900 -82.177600  11.438200 -33.534700 -90.827900 -15.230600 -30.895900 -18.228800  58.574900  54.146000 -107.719000 -28.709400   0.018050   0.009945  -9.354690  -0.002807   0.002804 -52.739800   8.613370  -6.524570 -43.553600   0.003633   0.002114 -32.665200  -0.004608   0.001364 -37.180500  -3.542720   4.665430 -54.129300  -0.000589  -0.002470 -36.417700   0.002571  -0.003611 -40.979700  -6.066670   6.939360 -54.386800  -0.001821  -0.003663 -37.677700  -0.006780  -0.002994 -51.834700  -7.268060   5.668340 -78.295200  -0.000234  -0.001401 -52.144600   0.000620   0.002077  13.464400  -3.008990  10.403100  67.701500  17.110200  -8.891390  -5.567920  -1.443670  19.895200 -12.757400 -15.417600   4.380720 -51.417900  50.236600  98.671900  21.268600   0.004362  -0.001813   5.634290   0.000000  -0.002620  33.825100   9.326700  13.596400  28.586800   0.002335  -0.000856  20.010700   0.000556   0.000162  29.448200   3.187820   5.625340  44.407300  -0.003364  -0.004357  29.575200  -0.004206  -0.000757  28.726900   0.710617   1.296300  39.843200  -0.002975  -0.001670  26.535500  -0.003021   0.002837  37.592600  -0.405268  -0.526357  56.391600  -0.002400  -0.005086  37.556800  -0.006000  -0.000674   0.930877  11.726900   0.541609   1.130240   0.073464  -0.622751  -1.896300  -2.563040  -1.208590   0.000000   0.000000   0.000000   4.843480  11.521800  -4.031330  -1.850760   2.400270  -2.647070  -1.681270  -4.969980   2.446280  -0.000000   0.000000  -0.000000
 -1.044190  89.590500  -2.882790  -1.665470 -10.393600   0.969779   0.550859   6.203850  -2.280070   1.363300  12.380300  -4.661660   2.971050  -7.153910   0.370674   5.094350 -14.392100  16.448700  -7.595230  -5.152250  -4.613970 -42.184000  20.622300 -81.995000  11.488900 -33.301100 -91.662100 -12.554000 -31.068100 -17.067000  57.184000  53.527400 -105.984000 -30.414300   0.014439   0.008138 -10.207200  -0.002251   0.003229 -52.046800   9.471180  -7.365450 -43.079500   0.003970   0.001899 -32.309700  -0.004484   0.001278 -36.537900  -3.540430   4.754440 -54.086300  -0.000626  -0.002544 -36.215600   0.002593  -0.003616 -40.272900  -5.739970   6.694600 -54.370100  -0.001798  -0.003667 -37.475000  -0.006792  -0.003000 -51.651300  -6.933480   5.445040 -77.979600  -0.000212  -0.001135 -51.934500   0.000795   0.002322  13.493200  -2.980550  10.339400  67.752900  17.064500  -8.979990  -5.576220  -1.401040  20.003300 -12.745900 -15.470200   4.386230 -51.511500  50.298500  98.793600  21.354600   0.004363  -0.001813   5.677280   0.000000  -0.002610  33.896800   9.318450  13.551400  28.642400   0.002413  -0.000896  20.049600   0.000483   0.000141  29.491400   3.167380   5.580010  44.469400  -0.003361  -0.004357  29.616600  -0.004209  -0.000799  28.730100   0.686513   1.252130  39.923900  -0.002977  -0.001667  26.589300  -0.003022   0.003194  37.648600  -0.420134  -0.544588  56.475900  -0.002401  -0.005107  37.613000  -0.006000  -0.000700   0.941351  11.700400   0.522527   1.125150   0.089460  -0.608676  -1.901160  -2.590660  -1.210200  -0.000000   0.000000  -0.000000   4.843440  11.554500  -4.055410  -1.831140   2.304270  -2.647270  -1.694060  -4.941710   2.466480   0.000000   0.000000   0.000000
 -1.066340  89.589900  -2.850290  -1.663990 -10.358600   0.981635   0.524834   6.187990  -2.229780   1.304580  12.350400  -4.556970   3.020640  -7.154460   0.376479   5.181930 -14.386400  16.308500  -7.596120  -5.133250  -4.623240 -42.103400  20.869600 -81.878300  11.739000 -33.127800 -92.164000  -8.907580 -31.335700 -15.489900  55.550500  52.709600 -103.935000 -31.859600   0.008644   0.005518 -10.929800  -0.001556   0.003383 -51.707000  10.109600  -7.871770 -42.878100   0.004291   0.001708 -32.158600  -0.004357   0.001196 -36.302900  -3.540010   4.784880 -54.075000  -0.000664  -0.002614 -36.145600   0.002615  -0.003624 -40.022700  -5.291010   6.270360 -54.365400  -0.001776  -0.003670 -37.392300  -0.006803  -0.003008 -51.667900  -6.442230   5.071780 -77.920500  -0.000189  -0.000858 -51.895100   0.000966   0.002564  13.507800  -2.958210  10.296500  67.810300  17.051400  -9.068930  -5.563610  -1.352050  20.058500 -12.714300 -15.483800   4.392860 -51.565000  50.333700  98.863200  21.455700   0.004365  -0.001813   5.727840   0.000000  -0.002600  33.941500   9.306070  13.510500  28.674200   0.002517  -0.000936  20.071900   0.000408   0.000118  29.514900   3.144760   5.534940  44.500300  -0.003358  -0.004358  29.637200  -0.004213  -0.000838  28.731700   0.661337   1.206110  39.960100  -0.002978  -0.001664  26.613400  -0.003022   0.003544  37.679400  -0.428346  -0.554645  56.522300  -0.002402  -0.005133  37.643900  -0.006001  -0.000729   0.951065  11.681300   0.504984   1.122190   0.102752  -0.599727  -1.904860  -2.616530  -1.215590   0.000000   0.000000   0.000000   4.841300  11.595500  -4.078500  -1.805970   2.197420  -2.649760  -1.706930  -4.910500   2.486650   0.000000   0.000000   0.000000
